<svg xmlns="http://www.w3.org/2000/svg" xmlns:xlink="http://www.w3.org/1999/xlink" version="1.1" x="0px" y="0px" viewBox="0 0 100 125" enable-background="new 0 0 100 100" xml:space="preserve"><path fill="white" d="M50.498,5.588c-24.143,0-43.785,19.646-43.785,43.788c0,24.143,19.642,43.786,43.785,43.786  c24.146,0,43.789-19.643,43.789-43.786C94.287,25.234,74.645,5.588,50.498,5.588z M50.498,89.883  c-22.336,0-40.504-18.174-40.504-40.506c0-8.559,2.684-16.493,7.233-23.041l9.243-4.261l5.125,3.895l3.668-5.125l9.248,7.176  l2.665-7.176l6.355,5.331l2.871-5.331l9.033,3.588l0.768-4.818l7.02,4.203v-4.203l5.523,4.203V20.4  c7.553,7.364,12.262,17.624,12.262,28.976C91.008,71.709,72.834,89.883,50.498,89.883z M41.444,49.207  c0,3.764-3.05,6.817-6.817,6.817c-3.765,0-6.816-3.053-6.816-6.817c0-3.767,3.052-6.816,6.816-6.816  C38.394,42.39,41.444,45.44,41.444,49.207z M70.451,49.207c0,3.764-3.049,6.817-6.816,6.817s-6.816-3.053-6.816-6.817  c0-3.767,3.049-6.816,6.816-6.816S70.451,45.44,70.451,49.207z M69.02,68.785c-0.004,6.152-8.293,11.137-18.518,11.137  c-10.227,0-18.518-4.984-18.521-11.137H69.02z"/></svg>