<svg xmlns="http://www.w3.org/2000/svg" xmlns:xlink="http://www.w3.org/1999/xlink" version="1.1" x="0px" y="0px" viewBox="0 0 100 125" enable-background="new 0 0 100 100" xml:space="preserve"><path fill="white" d="M49.998,6.567c-23.947,0-43.431,19.487-43.431,43.434c0,23.948,19.483,43.431,43.431,43.431  c23.951,0,43.435-19.483,43.435-43.431C93.433,26.054,73.949,6.567,49.998,6.567z M49.998,90.179  c-22.155,0-40.177-18.024-40.177-40.177c0-8.49,2.663-16.36,7.175-22.854l9.169-4.226l5.084,3.864l3.638-5.083l9.173,7.117  l2.644-7.117l6.305,5.287l2.847-5.287l8.96,3.559l0.763-4.779l6.961,4.168v-4.168l5.481,4.168v-3.39  c7.489,7.305,12.159,17.482,12.159,28.742C90.179,72.154,72.154,90.179,49.998,90.179z M30.775,74.775 M41.016,49.833  c0,3.733-3.024,6.762-6.761,6.762c-3.733,0-6.762-3.028-6.762-6.762c0-3.736,3.028-6.761,6.762-6.761  C37.991,43.072,41.016,46.097,41.016,49.833z M69.79,49.833c0,3.733-3.024,6.762-6.762,6.762c-3.736,0-6.761-3.028-6.761-6.762  c0-3.736,3.024-6.761,6.761-6.761C66.766,43.072,69.79,46.097,69.79,49.833z M70.604,37.331l-14.285,3.914l-0.858-3.136  l14.279-3.915L70.604,37.331z M27.544,34.191l14.285,3.914l-0.864,3.139l-14.278-3.914L27.544,34.191z M34.77,77.267l-2.567-1.996  c0.388-0.498,9.5-12.105,17.907-12.105c0.063,0,0.127,0,0.188,0.004c2.92,0.06,5.373,1.458,7.295,4.155l-2.649,1.888  c-1.31-1.84-2.851-2.748-4.709-2.79C44.6,66.216,37.149,74.21,34.77,77.267z"/></svg>