<svg xmlns="http://www.w3.org/2000/svg" xmlns:xlink="http://www.w3.org/1999/xlink" version="1.1" x="0px" y="0px" viewBox="0 0 100 125" enable-background="new 0 0 100 100" xml:space="preserve"><path fill="white" d="M49.998,6.026c-24.247,0-43.973,19.729-43.973,43.976c0,24.247,19.726,43.973,43.973,43.973  c24.249,0,43.976-19.727,43.976-43.973C93.974,25.755,74.247,6.026,49.998,6.026z M49.998,90.68  C27.566,90.68,9.32,72.43,9.32,50.001c0-8.595,2.695-16.564,7.264-23.14l9.284-4.278l5.147,3.911l3.683-5.147l9.288,7.207  l2.677-7.207l6.381,5.353l2.884-5.353l9.071,3.603l0.771-4.838l7.049,4.221v-4.221l5.549,4.221v-3.432  c7.583,7.396,12.312,17.7,12.312,29.1C90.68,72.43,72.43,90.68,49.998,90.68z M40.903,49.831c0,3.78-3.062,6.847-6.846,6.847  c-3.78,0-6.845-3.066-6.845-6.847c0-3.783,3.065-6.846,6.845-6.846C37.841,42.985,40.903,46.048,40.903,49.831z M70.036,49.831  c0,3.78-3.062,6.847-6.845,6.847c-3.783,0-6.846-3.066-6.846-6.847c0-3.783,3.062-6.846,6.846-6.846  C66.974,42.985,70.036,46.048,70.036,49.831z M71.677,37.172l-14.464,3.963l-0.867-3.175l14.456-3.964L71.677,37.172z M27.27,33.997  l14.458,3.964l-0.869,3.175l-14.463-3.963L27.27,33.997z M68.598,73.367c0,5.42-8.325,9.814-18.597,9.814  c-10.274,0-18.6-4.395-18.6-9.814c0-5.422,8.326-9.812,18.6-9.812C60.272,63.555,68.598,67.945,68.598,73.367z"/></svg>